<svg xmlns="http://www.w3.org/2000/svg" viewBox="0 0 35.22 33.19"><title>Asset 1</title><g id="Layer_2" data-name="Layer 2"><g id="Layer_1-2" data-name="Layer 1"><path d="M9.76,15.56H14.3a.69.69,0,0,1,.69.69V32.5a.69.69,0,0,1-.69.69H.69A.69.69,0,0,1,0,32.5V17.82a.69.69,0,0,1,.08-.32L9,.37A.69.69,0,0,1,9.78,0l3.78,1.1A.69.69,0,0,1,14,2L9.12,14.62A.69.69,0,0,0,9.76,15.56Zm20.24,0h4.54a.69.69,0,0,1,.69.69V32.5a.69.69,0,0,1-.69.69H20.92a.69.69,0,0,1-.69-.69V17.82a.69.69,0,0,1,.08-.32L29.22.37A.69.69,0,0,1,30,0l3.78,1.1a.69.69,0,0,1,.45.91l-4.9,12.58A.69.69,0,0,0,30,15.56Z"/></g></g></svg>